<svg xmlns="http://www.w3.org/2000/svg" width="1200" height="420" viewBox="0 0 1200 420" role="img" aria-labelledby="title desc">
<title id="title">PatientConnect360 — healthcare coordination platform</title><desc id="desc">PatientConnect360 project card showing role-based healthcare workflows and a roughly 95 percent large-dataset optimization.</desc>
<defs><pattern id="grid" width="34" height="34" patternUnits="userSpaceOnUse"><path d="M34 0H0V34" fill="none" stroke="#151A23"/></pattern><marker id="arrow" markerWidth="8" markerHeight="8" refX="7" refY="4" orient="auto"><path d="M0,0 L8,4 L0,8 z" fill="#A7B0C0"/></marker></defs>
<style>
.sans{font-family:-apple-system,BlinkMacSystemFont,"Segoe UI",Helvetica,Arial,sans-serif}.mono{font-family:SFMono-Regular,Consolas,"Liberation Mono",monospace;letter-spacing:1.1px}.title{font-size:34px;font-weight:760;letter-spacing:-.7px}.kicker{font-size:11px;font-weight:800}.body{font-size:16px;font-weight:520}.metric{font-size:34px;font-weight:760}.mlabel{font-size:10px;font-weight:800}.small{font-size:11px;font-weight:700}.node{font-size:10px;font-weight:800}
</style><rect width="1200" height="420" rx="18" fill="#050509"/><rect width="1200" height="420" rx="18" fill="url(#grid)" opacity=".58"/><rect x="1" y="1" width="1198" height="418" rx="17" fill="none" stroke="#202634"/><rect x="28" y="28" width="1144" height="364" rx="16" fill="#0B0F14" stroke="#202634"/>
<text x="60" y="72" class="mono kicker" fill="#7DD3FC">03 / 03 · HEALTHCARE COORDINATION / FULL STACK</text>
<text x="60" y="120" class="sans title" fill="#F6FAFF">PatientConnect360</text>
<text x="60" y="153" class="sans body" fill="#A7B0C0">role-aware care workflows backed by searchable, auditable system data</text>
<path d="M60 181H1140" stroke="#202634"/>
<rect x="60" y="214" width="128" height="42" rx="21" fill="#111827" stroke="#202634"/><circle cx="78" cy="235" r="4" fill="#63F58B"/><text x="91" y="239" class="mono small" fill="#F6FAFF">PATIENT</text><rect x="207" y="214" width="148" height="42" rx="21" fill="#111827" stroke="#202634"/><circle cx="225" cy="235" r="4" fill="#63F58B"/><text x="238" y="239" class="mono small" fill="#F6FAFF">CAREGIVER</text><rect x="374" y="214" width="128" height="42" rx="21" fill="#111827" stroke="#202634"/><circle cx="392" cy="235" r="4" fill="#63F58B"/><text x="405" y="239" class="mono small" fill="#F6FAFF">CLINICIAN</text><rect x="541" y="214" width="128" height="42" rx="21" fill="#111827" stroke="#202634"/><circle cx="559" cy="235" r="4" fill="#63F58B"/><text x="572" y="239" class="mono small" fill="#F6FAFF">ADMIN</text><path d="M124 270V300H593V270" fill="none" stroke="#A7B0C0"/>
<path d="M358 300V326" stroke="#A7B0C0" marker-end="url(#arrow)"/>
<rect x="245" y="330" width="228" height="42" rx="12" fill="#111827" stroke="#7DD3FC"/>
<text x="359" y="356" class="mono small" text-anchor="middle" fill="#F6FAFF">POSTGRESQL / PRISMA / API</text>
<rect x="742" y="204" width="382" height="168" rx="16" fill="#111827" stroke="#202634"/>
<text x="774" y="234" class="mono mlabel" fill="#A7B0C0">LARGE-DATASET OPTIMIZATION</text>
<text x="774" y="304" class="sans" font-size="68" font-weight="780" fill="#7DD3FC">~95%</text>
<text x="774" y="335" class="sans body" fill="#F6FAFF">query time + network transfer</text>
<circle cx="1090" cy="228" r="5" fill="#FF4FD8"/><text x="1076" y="359" class="mono small" text-anchor="end" fill="#A7B0C0">faster can also feel calmer ✦</text>
</svg>